<?xml version="1.0" standalone="no"?>
<!DOCTYPE svg PUBLIC "-//W3C//DTD SVG 20010904//EN"
 "http://www.w3.org/TR/2001/REC-SVG-20010904/DTD/svg10.dtd">
<svg version="1.0" xmlns="http://www.w3.org/2000/svg"
 width="1280.000000pt" height="1019.000000pt" viewBox="0 0 1280.000000 1019.000000"
 preserveAspectRatio="xMidYMid meet">
<metadata>
Created by potrace 1.15, written by Peter Selinger 2001-2017
</metadata>
<g transform="translate(0.000000,1019.000000) scale(0.100000,-0.100000)"
fill="#000000" stroke="none">
<path d="M10550 10179 c-69 -5 -160 -16 -203 -24 -90 -18 -276 -87 -327 -122
-19 -12 -44 -23 -55 -23 -12 0 -30 -7 -41 -15 -10 -8 -29 -15 -41 -15 -12 0
-26 -6 -30 -14 -4 -7 -26 -19 -48 -26 -35 -11 -100 -45 -199 -104 -17 -10 -48
-33 -68 -52 -20 -18 -56 -43 -80 -55 -24 -12 -69 -41 -101 -65 -33 -24 -63
-44 -69 -44 -5 0 -51 -40 -102 -88 -79 -75 -165 -139 -319 -236 -15 -9 -31
-25 -35 -35 -6 -16 -121 -115 -192 -166 -15 -11 -57 -45 -92 -77 -114 -101
-228 -202 -322 -283 -51 -44 -153 -136 -227 -204 -74 -68 -149 -130 -166 -138
-18 -7 -33 -18 -33 -23 0 -5 -136 -143 -301 -307 -206 -204 -311 -315 -331
-351 -17 -29 -49 -67 -72 -85 -22 -18 -70 -63 -106 -102 -36 -38 -78 -81 -94
-95 -16 -14 -176 -171 -355 -350 -179 -179 -364 -357 -410 -395 -47 -39 -134
-118 -195 -176 -61 -59 -151 -137 -201 -174 -49 -37 -173 -149 -275 -250 -102
-100 -242 -228 -312 -283 -70 -56 -129 -106 -133 -112 -18 -29 -252 -232 -368
-318 -74 -55 -185 -148 -248 -207 -63 -59 -143 -128 -179 -153 -36 -25 -95
-73 -132 -106 -198 -179 -184 -172 -326 -152 -64 9 -234 30 -377 46 -143 17
-289 39 -325 50 -36 10 -135 26 -220 35 -85 9 -195 25 -245 36 -58 13 -146 22
-245 26 -85 3 -180 12 -210 19 -77 20 -422 19 -504 -1 -34 -8 -106 -22 -161
-30 -119 -19 -295 -62 -313 -78 -8 -6 -45 -19 -84 -29 -38 -10 -108 -36 -154
-58 -46 -22 -87 -40 -90 -40 -4 0 -26 -16 -50 -35 -73 -60 -102 -151 -69 -214
30 -59 66 -55 196 22 58 34 132 71 165 81 32 10 71 25 86 32 14 8 33 14 42 14
9 0 35 9 57 21 152 77 749 89 1189 23 52 -8 151 -14 220 -14 126 0 222 -16
265 -44 11 -7 63 -16 115 -19 53 -4 111 -12 130 -17 19 -5 87 -17 150 -25 279
-36 298 -79 98 -222 -37 -26 -115 -88 -175 -136 -59 -49 -126 -98 -148 -109
-56 -29 -144 -98 -249 -195 -49 -46 -121 -101 -160 -124 -39 -23 -85 -55 -102
-71 -17 -16 -45 -37 -62 -46 -128 -71 -198 -115 -293 -186 -60 -44 -146 -103
-191 -131 -45 -27 -120 -76 -169 -107 -48 -32 -91 -58 -97 -58 -19 0 -209 -93
-298 -146 -50 -30 -133 -71 -185 -93 -52 -21 -141 -60 -199 -86 -124 -56 -231
-95 -262 -95 -13 0 -61 -14 -107 -30 -146 -52 -382 -63 -509 -25 -60 19 -106
19 -140 1 -74 -39 -100 -112 -63 -183 35 -69 69 -86 190 -94 59 -4 135 -12
171 -18 79 -13 203 -14 250 -2 19 5 82 28 140 51 144 58 285 108 338 122 50
12 62 21 129 90 37 38 54 48 92 54 61 9 332 135 435 203 58 38 57 38 106 51
32 9 58 26 90 61 45 48 147 108 185 109 20 1 51 21 145 98 28 23 82 59 118 79
37 20 88 51 113 70 26 18 52 33 58 33 5 0 33 20 61 45 55 49 173 131 235 163
22 11 85 62 140 112 67 61 122 102 170 125 77 38 203 134 223 171 7 13 19 24
27 24 8 0 38 20 68 44 29 24 65 49 78 56 13 7 26 16 29 20 3 4 25 18 50 30 53
27 88 54 178 136 37 34 76 64 88 68 11 3 47 -2 80 -13 32 -10 82 -21 109 -25
28 -4 101 -21 164 -37 109 -28 163 -36 406 -59 74 -7 140 -20 198 -40 54 -18
125 -33 185 -39 69 -7 114 -17 155 -36 68 -32 159 -49 362 -70 130 -13 213
-25 301 -41 12 -2 25 -12 30 -21 4 -10 8 -115 9 -233 1 -200 3 -222 27 -311
15 -53 32 -133 38 -179 6 -45 15 -93 20 -106 9 -24 27 -125 50 -289 6 -44 22
-127 35 -185 13 -58 47 -240 75 -405 62 -365 67 -393 91 -475 11 -36 30 -127
43 -204 23 -135 23 -139 5 -157 -24 -24 -47 -24 -74 1 -12 11 -62 36 -111 56
-49 19 -108 45 -132 57 -37 19 -59 22 -161 22 -115 0 -120 -1 -187 -35 -143
-73 -134 -180 15 -180 121 0 202 -19 316 -75 61 -30 130 -64 155 -75 89 -41
147 -88 197 -160 47 -69 74 -104 115 -149 24 -26 50 -58 58 -70 8 -13 25 -36
38 -52 32 -40 71 -132 87 -208 67 -326 84 -401 95 -420 28 -53 111 -51 159 4
57 65 55 171 -5 294 -33 65 -39 90 -45 171 -4 52 -10 110 -14 128 -7 30 -6 32
22 32 19 0 44 -12 69 -33 21 -19 55 -45 76 -58 80 -53 194 -138 212 -158 11
-11 24 -21 30 -21 35 0 124 -56 170 -106 28 -31 68 -65 88 -75 21 -11 71 -41
111 -67 39 -26 131 -74 202 -106 211 -96 267 -123 334 -166 81 -50 109 -51
149 -5 62 70 50 147 -30 206 -61 45 -136 77 -348 149 -102 34 -192 68 -200 75
-8 7 -26 16 -40 20 -35 11 -217 143 -323 234 -48 42 -96 80 -105 85 -25 14
-165 137 -180 158 -11 15 -11 22 -2 33 19 23 52 18 144 -20 47 -19 92 -35 100
-35 9 0 33 -9 53 -20 42 -22 98 -25 156 -9 46 12 90 72 85 115 -4 36 -50 68
-120 84 -121 27 -246 75 -405 156 -92 48 -184 96 -203 109 -19 12 -56 25 -81
28 -51 7 -135 40 -162 65 -10 8 -35 47 -56 86 -35 64 -39 80 -44 166 -5 67
-12 107 -27 135 -11 21 -20 46 -20 55 0 8 -18 83 -41 165 -31 114 -43 180 -49
275 -5 69 -16 152 -24 185 -8 33 -24 132 -36 220 -11 88 -27 185 -35 215 -8
30 -23 147 -35 260 -25 252 -45 380 -66 428 -12 26 -17 66 -16 139 0 119 5
139 35 147 46 12 222 6 266 -10 49 -17 282 -55 459 -75 131 -15 114 2 161
-161 16 -53 43 -122 61 -155 19 -32 47 -83 62 -113 16 -30 36 -66 44 -80 7
-14 14 -34 14 -44 0 -11 6 -27 14 -35 7 -9 21 -41 31 -71 10 -30 26 -72 36
-92 11 -21 19 -48 19 -60 1 -34 35 -104 75 -151 19 -22 35 -48 35 -58 0 -9 20
-44 45 -76 85 -109 147 -198 161 -230 8 -18 18 -33 23 -33 5 0 20 -24 34 -54
14 -30 40 -70 56 -89 17 -19 31 -39 31 -44 0 -4 18 -30 40 -57 22 -26 40 -52
40 -56 0 -4 31 -48 69 -97 38 -49 78 -107 90 -129 34 -61 68 -105 119 -154
109 -105 262 -301 262 -335 0 -48 -128 -67 -260 -39 -109 23 -156 22 -207 -4
-64 -33 -86 -68 -79 -122 3 -24 12 -51 20 -58 25 -25 127 -41 316 -52 269 -15
410 -33 485 -62 41 -16 103 -67 111 -90 3 -11 18 -25 33 -31 54 -24 206 -152
451 -381 95 -89 134 -116 168 -116 41 0 83 30 103 73 27 62 25 82 -16 105 -45
27 -125 136 -125 171 0 37 -30 81 -84 126 -25 20 -43 41 -40 46 13 22 164 -8
199 -40 29 -27 95 -58 140 -66 22 -4 47 -14 56 -21 38 -33 211 -75 364 -89
143 -13 305 -63 305 -94 0 -5 8 -12 18 -15 9 -3 28 -13 42 -21 14 -8 44 -15
67 -15 104 0 160 132 85 203 -68 64 -182 100 -412 133 -239 33 -316 54 -470
128 -41 20 -83 36 -93 36 -10 0 -71 22 -135 49 -65 27 -191 70 -283 95 -178
48 -249 73 -249 87 0 13 72 11 245 -6 176 -17 462 -19 555 -4 131 21 192 69
156 123 -23 36 -94 54 -267 66 -82 5 -218 16 -301 23 -292 23 -607 11 -629
-25 -5 -7 -18 -4 -41 10 -47 29 -72 59 -102 122 -14 31 -62 95 -107 145 -103
114 -248 291 -256 313 -10 28 -84 134 -124 177 -20 22 -46 62 -58 89 -11 27
-37 70 -56 97 -19 26 -48 74 -64 107 -16 32 -41 73 -55 89 -14 17 -26 35 -26
39 0 4 -13 22 -29 39 -16 16 -45 55 -63 86 -52 88 -90 143 -104 152 -8 4 -14
20 -14 34 0 15 -7 35 -17 45 -18 20 -47 87 -99 233 -20 55 -50 126 -65 158
-16 31 -32 77 -36 102 -3 25 -9 45 -13 45 -12 0 -60 115 -60 144 0 15 6 29 14
32 7 3 278 6 602 8 l589 3 124 27 c68 14 142 35 165 46 23 10 93 28 156 40
126 24 206 45 224 59 6 5 45 18 86 29 41 11 111 34 155 50 127 47 137 50 198
61 31 5 97 26 145 46 48 20 119 42 157 49 57 10 94 26 195 85 69 40 143 86
164 102 22 16 48 29 58 29 10 0 21 7 24 15 3 8 14 17 24 20 10 3 49 28 86 55
37 28 74 50 83 50 9 0 41 16 71 35 30 19 60 35 67 35 7 0 16 6 20 13 4 7 19
20 33 29 14 8 66 50 115 92 49 42 101 83 116 90 37 18 189 146 189 158 0 6 35
45 78 87 91 90 161 178 203 258 16 32 37 63 45 69 42 33 132 192 212 375 70
159 93 228 127 369 13 58 33 131 45 162 55 155 46 754 -15 1051 -16 78 -69
228 -104 296 -10 20 -31 68 -45 107 -15 39 -43 98 -63 130 -69 113 -141 250
-152 290 -5 21 -15 89 -22 149 -10 98 -10 117 6 170 20 70 86 145 127 145 32
0 106 39 177 94 31 24 74 49 96 56 22 7 76 30 121 51 99 46 122 52 299 79 97
15 160 20 205 16 90 -9 157 12 214 67 74 71 73 157 -2 193 -84 40 -146 46
-557 52 -304 6 -406 10 -423 20 -13 8 -33 35 -44 60 -12 26 -28 58 -38 72 -9
14 -20 36 -23 50 -6 26 -73 143 -141 250 -19 30 -73 101 -120 156 l-85 101
-138 56 c-76 30 -162 60 -191 66 -59 12 -243 12 -432 0z m160 -269 c200 -24
391 -75 435 -116 14 -13 37 -29 50 -36 28 -15 59 -56 115 -155 23 -40 46 -75
51 -79 22 -13 89 -166 98 -224 6 -33 20 -77 31 -95 32 -51 98 -104 139 -110
66 -11 81 -15 81 -24 0 -10 -107 -91 -121 -91 -21 0 -78 -53 -128 -118 -29
-37 -73 -93 -99 -124 -26 -32 -62 -93 -82 -140 -34 -80 -35 -86 -34 -208 1
-159 26 -264 94 -402 28 -56 57 -109 65 -118 24 -27 142 -281 169 -365 14 -44
32 -98 40 -120 50 -142 40 -1006 -14 -1127 -10 -24 -28 -81 -40 -128 -12 -47
-25 -89 -30 -95 -4 -5 -13 -28 -20 -50 -18 -57 -121 -260 -165 -325 -20 -30
-42 -68 -49 -85 -7 -16 -43 -65 -80 -108 -36 -43 -76 -97 -87 -120 -44 -84
-297 -308 -473 -416 -33 -21 -108 -67 -166 -102 -58 -36 -141 -85 -185 -109
-44 -23 -94 -54 -112 -66 -17 -13 -37 -24 -43 -24 -15 0 -180 -64 -235 -91
-22 -10 -48 -19 -58 -19 -11 0 -31 -9 -47 -20 -34 -24 -188 -76 -255 -85 -27
-4 -57 -14 -66 -21 -8 -8 -40 -22 -70 -33 -31 -10 -87 -32 -125 -49 -111 -49
-228 -79 -440 -112 -109 -17 -223 -37 -253 -45 -158 -40 -843 -71 -991 -44
-52 9 -168 14 -375 14 -290 1 -306 2 -480 32 -99 18 -216 35 -260 39 -44 3
-100 15 -124 26 -56 25 -230 62 -387 83 -67 8 -163 26 -215 40 -52 14 -155 34
-229 45 -142 22 -449 90 -513 115 -20 8 -128 24 -240 35 -230 23 -293 33 -380
60 -34 11 -88 22 -120 26 -32 4 -60 11 -63 16 -4 5 4 24 17 43 29 40 298 295
311 295 6 0 40 29 76 64 37 35 91 78 120 95 83 49 137 99 199 183 32 43 65 80
74 83 9 3 52 35 95 71 43 35 101 77 129 93 51 29 173 142 566 526 191 187 393
365 414 365 17 0 139 106 160 140 12 20 40 49 60 66 21 16 75 67 119 113 163
168 385 388 451 446 38 33 82 79 99 102 29 39 187 173 204 173 14 0 49 43 70
85 22 44 97 119 129 129 11 4 25 16 32 29 25 47 68 97 106 122 56 38 154 135
242 240 75 89 284 278 322 290 23 7 151 140 151 158 1 6 48 45 105 86 57 41
106 79 109 86 2 7 30 26 61 44 31 18 97 70 147 117 51 47 112 99 137 116 25
17 70 52 100 77 30 25 75 60 100 76 25 17 61 54 81 84 29 43 47 58 96 81 33
15 76 41 96 58 19 18 40 32 44 32 5 0 34 20 64 45 55 46 219 153 288 189 20
11 48 26 62 33 135 76 379 173 479 192 23 4 46 13 50 19 20 32 159 41 321 22z"/>
<path d="M10700 9581 c-31 -7 -50 -15 -122 -57 -11 -7 -28 -25 -37 -40 -10
-16 -25 -35 -34 -43 -10 -7 -17 -20 -17 -28 0 -8 -9 -26 -20 -40 -16 -20 -20
-41 -20 -99 0 -50 6 -90 20 -124 11 -28 20 -60 20 -72 0 -35 88 -113 143 -126
25 -7 49 -16 52 -22 25 -40 338 30 372 82 4 7 21 21 38 30 35 19 65 75 94 173
28 92 28 164 0 196 -11 13 -30 40 -42 59 -14 21 -35 39 -55 45 -17 5 -34 17
-37 26 -3 10 -20 23 -38 29 -38 14 -267 22 -317 11z m201 -224 c82 -55 107
-161 50 -217 -40 -41 -74 -47 -130 -24 -49 21 -64 42 -94 135 -17 53 -8 79 39
110 39 26 93 24 135 -4z"/>
</g>
</svg>
