<?xml version="1.0" standalone="no"?>
<!DOCTYPE svg PUBLIC "-//W3C//DTD SVG 20010904//EN"
 "http://www.w3.org/TR/2001/REC-SVG-20010904/DTD/svg10.dtd">
<svg version="1.0" xmlns="http://www.w3.org/2000/svg"
 width="1280.000000pt" height="1088.000000pt" viewBox="0 0 1280.000000 1088.000000"
 preserveAspectRatio="xMidYMid meet">
<metadata>
Created by potrace 1.15, written by Peter Selinger 2001-2017
</metadata>
<g transform="translate(0.000000,1088.000000) scale(0.100000,-0.100000)"
fill="#000000" stroke="none">
<path d="M8230 10713 c-63 -7 -186 -27 -272 -43 -188 -35 -326 -91 -459 -187
-46 -33 -131 -92 -189 -130 -73 -49 -117 -87 -145 -124 -22 -30 -78 -94 -125
-144 -97 -102 -235 -286 -273 -360 -13 -27 -45 -123 -70 -212 -52 -185 -42
-162 -160 -353 -191 -309 -221 -356 -244 -383 -12 -16 -23 -33 -23 -39 0 -6
-20 -46 -44 -88 -25 -42 -48 -89 -52 -104 -3 -15 -38 -71 -77 -124 -38 -53
-95 -144 -125 -202 -30 -58 -73 -133 -95 -168 -21 -34 -45 -83 -53 -108 -18
-62 -101 -205 -195 -339 -54 -78 -124 -204 -237 -430 -88 -176 -172 -351 -187
-390 -37 -93 -97 -212 -156 -310 -26 -44 -60 -116 -74 -160 -14 -44 -76 -181
-137 -305 -61 -124 -137 -281 -168 -350 -31 -69 -87 -181 -126 -250 -106 -191
-292 -571 -335 -687 -22 -57 -65 -156 -98 -221 -32 -64 -80 -180 -106 -257
-26 -77 -72 -189 -103 -250 -30 -60 -73 -157 -94 -215 -22 -58 -57 -143 -79
-190 -83 -177 -316 -576 -366 -626 -37 -37 -44 -87 -19 -127 9 -15 17 -86 25
-217 7 -107 16 -224 22 -260 6 -36 14 -240 19 -455 5 -214 13 -419 19 -455 5
-36 10 -130 10 -210 0 -80 7 -192 15 -250 12 -78 16 -197 16 -461 0 -262 3
-358 12 -367 21 -21 46 -13 97 32 27 24 58 47 68 50 10 4 33 27 50 51 18 24
86 88 150 141 65 54 177 148 248 209 72 61 185 152 252 203 68 51 203 161 301
246 99 84 201 170 228 190 84 63 200 177 308 301 57 66 173 188 258 271 138
137 159 154 209 169 56 18 57 18 104 -5 l47 -23 26 20 c23 17 27 28 28 74 1
55 26 129 114 329 59 134 157 329 184 365 47 63 147 255 186 360 45 119 134
301 233 476 35 63 87 161 116 219 29 58 61 116 71 130 10 14 36 62 59 107 44
88 205 377 245 441 13 21 45 81 71 133 26 52 92 169 147 261 55 93 126 228
157 300 32 73 118 252 191 398 120 240 170 335 387 735 36 66 116 200 177 298
183 292 192 309 377 672 97 193 204 397 237 455 57 99 62 105 90 102 53 -5 84
58 47 98 -13 14 -8 27 47 122 43 75 67 108 84 112 12 3 36 26 53 51 16 24 77
102 134 173 93 115 107 137 131 213 15 46 34 136 42 199 8 63 21 159 29 212
30 197 16 476 -39 748 -41 201 -68 270 -161 406 -102 149 -156 210 -273 311
-93 81 -121 99 -214 138 -91 39 -125 48 -230 60 -143 17 -164 17 -318 -2z
m315 -87 c254 -31 452 -179 665 -496 57 -85 94 -181 125 -327 62 -299 78 -526
47 -713 -11 -69 -26 -172 -33 -230 -21 -183 -60 -271 -178 -403 -25 -27 -26
-27 -41 -8 -15 19 -137 69 -330 135 -63 22 -170 76 -315 158 -307 174 -368
204 -643 307 -172 65 -320 130 -519 229 -153 76 -333 163 -401 192 l-123 55 5
37 c2 21 18 67 34 102 35 75 184 276 264 356 30 30 80 87 112 126 40 51 82 89
144 130 48 33 132 91 187 130 172 124 347 179 690 219 145 16 180 17 310 1z
m-1609 -1260 c87 -40 267 -127 399 -193 168 -85 310 -146 475 -208 266 -99
364 -146 650 -311 138 -79 234 -127 299 -149 162 -56 285 -106 305 -125 25
-25 13 -55 -34 -85 -29 -18 -55 -53 -109 -147 -39 -68 -75 -129 -79 -136 -11
-17 -68 5 -172 66 -41 24 -122 64 -179 89 -58 25 -144 64 -192 88 -48 24 -203
83 -345 130 -235 78 -269 93 -369 155 -60 37 -182 105 -270 150 -176 91 -349
188 -465 260 -41 26 -115 68 -163 94 -84 46 -87 49 -74 70 7 11 31 50 52 86
21 36 44 72 52 81 7 9 20 42 28 75 18 69 23 84 28 84 2 0 76 -33 163 -74z
m-366 -370 c0 -18 -17 -29 -30 -21 -8 5 -7 11 1 21 15 18 29 18 29 0z m100
-71 c-7 -8 -16 -15 -21 -15 -13 0 -11 24 3 38 18 18 35 -3 18 -23z m143 -56
c38 -22 67 -43 64 -45 -2 -3 -37 6 -78 19 -60 18 -75 27 -77 45 -5 31 12 28
91 -19z m-253 -14 c6 -7 7 -16 2 -18 -11 -7 -54 15 -59 29 -5 15 43 6 57 -11z
m-75 -25 c9 -10 41 -26 69 -34 30 -9 63 -28 80 -45 31 -32 88 -57 106 -46 6 4
39 -23 73 -59 48 -50 77 -71 127 -91 91 -37 126 -61 150 -100 15 -24 33 -38
60 -45 44 -12 183 -81 209 -103 9 -8 45 -27 81 -42 36 -15 86 -42 111 -60 54
-39 285 -150 331 -160 18 -4 70 -24 115 -45 45 -21 101 -41 125 -45 74 -11
192 -36 223 -47 53 -19 99 -39 125 -53 68 -39 120 -58 165 -62 79 -7 79 -8 54
-54 -13 -22 -28 -44 -34 -49 -14 -11 -158 31 -230 68 -27 14 -86 37 -130 52
-119 41 -153 58 -165 80 -6 11 -21 20 -33 20 -52 0 -321 100 -412 154 -51 30
-149 75 -217 101 -304 115 -447 187 -705 351 -109 70 -235 149 -280 178 -45
28 -82 58 -83 66 0 18 47 90 59 90 4 0 16 -9 26 -20z m290 -40 c-5 -8 -11 -8
-17 -2 -6 6 -7 16 -3 22 5 8 11 8 17 2 6 -6 7 -16 3 -22z m211 -117 c-10 -10
-19 5 -10 18 6 11 8 11 12 0 2 -7 1 -15 -2 -18z m163 -2 c7 -5 10 -14 7 -20
-10 -16 -43 -14 -49 3 -10 25 14 34 42 17z m-561 -149 c119 -76 232 -147 250
-158 17 -10 32 -26 32 -35 0 -15 -77 -240 -153 -449 -57 -156 -135 -347 -171
-418 -18 -37 -41 -92 -51 -122 -30 -92 -92 -245 -185 -455 -132 -297 -160
-373 -144 -386 15 -13 23 0 63 108 16 43 68 166 116 273 92 206 150 349 180
440 10 30 38 98 63 150 68 146 135 320 258 670 30 85 59 159 63 163 5 5 48
-12 97 -36 102 -51 307 -139 439 -188 50 -18 133 -58 185 -88 52 -30 115 -62
140 -72 25 -10 44 -22 43 -28 -2 -6 -60 -113 -129 -238 -145 -263 -262 -451
-420 -678 -136 -194 -240 -394 -323 -621 -38 -104 -89 -216 -132 -293 -38 -70
-101 -196 -140 -281 -43 -95 -109 -216 -171 -313 -98 -155 -156 -278 -202
-432 -106 -357 -210 -602 -396 -940 -49 -88 -109 -214 -133 -280 -25 -66 -62
-158 -82 -205 -20 -47 -53 -130 -72 -184 -19 -55 -52 -135 -74 -178 -21 -43
-53 -112 -69 -153 -16 -41 -50 -115 -74 -163 -24 -49 -64 -135 -89 -193 -38
-90 -150 -295 -222 -409 -29 -45 -71 -90 -85 -90 -6 0 -31 -19 -55 -41 -25
-23 -48 -39 -51 -37 -3 3 -9 64 -14 134 -10 156 -16 177 -75 260 -39 54 -58
70 -116 99 -137 70 -299 86 -398 40 -30 -14 -58 -24 -63 -23 -11 4 178 316
263 433 36 50 96 144 134 210 38 66 92 156 121 201 60 93 94 159 159 306 25
56 75 156 111 220 66 119 73 149 37 162 -9 4 -23 4 -33 1 -23 -7 -115 -171
-207 -370 -44 -93 -113 -224 -154 -290 -41 -66 -97 -158 -124 -205 -26 -47
-80 -130 -119 -185 -39 -55 -114 -172 -166 -259 -53 -88 -100 -161 -105 -162
-6 -2 -37 54 -70 123 -33 69 -69 132 -80 139 -28 18 -206 64 -249 64 -20 0
-79 -16 -130 -35 -90 -34 -116 -40 -116 -30 0 2 19 35 41 72 58 94 208 362
254 453 20 41 59 133 87 204 27 70 72 174 100 230 28 55 75 169 104 252 28 82
79 204 112 270 32 65 74 162 93 214 34 95 245 524 354 720 32 58 76 146 98
195 21 50 94 203 162 340 68 138 136 286 151 330 14 44 48 116 74 160 50 83
124 234 159 322 11 28 93 196 182 374 110 221 183 354 229 419 87 122 186 291
206 355 9 27 35 82 59 120 23 39 63 111 90 160 26 50 79 134 116 187 38 53 74
109 80 125 14 38 69 145 82 161 5 7 16 11 24 8 7 -3 111 -68 231 -144z m632
102 c0 -8 -5 -12 -10 -9 -6 4 -8 11 -5 16 9 14 15 11 15 -7z m-75 -84 c7 -12
-2 -12 -30 0 -19 8 -19 9 2 9 12 1 25 -3 28 -9z m112 -25 c19 -8 44 -15 55
-15 29 0 78 -29 78 -45 0 -8 -6 -15 -14 -15 -23 0 -196 72 -196 81 0 14 37 11
77 -6z m223 -101 c0 -19 -39 -18 -47 2 -3 9 0 20 8 24 15 10 39 -6 39 -26z
m-80 -62 c46 -19 83 -52 61 -52 -22 0 -76 27 -95 48 -10 12 -31 24 -47 27 -16
4 -31 11 -34 15 -6 10 43 -6 115 -38z m248 29 c3 -8 -1 -12 -9 -9 -7 2 -15 10
-17 17 -3 8 1 12 9 9 7 -2 15 -10 17 -17z m-78 -4 c0 -22 -11 -27 -33 -16 -16
9 -17 13 -6 20 21 13 39 11 39 -4z m370 -91 c0 -2 -9 -2 -20 1 -11 3 -20 9
-20 15 0 5 9 4 20 -2 11 -6 20 -12 20 -14z m-405 -8 c14 -6 25 -15 25 -20 0
-4 10 -8 23 -8 25 0 129 -59 162 -91 18 -18 13 -17 -49 6 -38 14 -86 39 -105
54 -20 16 -54 38 -76 50 -41 22 -25 30 20 9z m515 -24 c0 -2 -7 -4 -15 -4 -8
0 -15 4 -15 10 0 5 7 7 15 4 8 -4 15 -8 15 -10z m128 -39 c1 -1 0 -10 -4 -19
-9 -24 -38 -15 -42 13 -3 20 -1 22 20 16 13 -4 24 -9 26 -10z m32 -55 c0 -5
-5 -10 -11 -10 -5 0 -7 5 -4 10 3 6 8 10 11 10 2 0 4 -4 4 -10z m-265 -60 c29
-18 35 -26 22 -28 -17 -3 -97 36 -97 48 0 13 13 19 24 12 6 -4 29 -18 51 -32z
m785 -234 c0 -34 -15 -40 -46 -20 l-26 17 24 13 c35 20 48 17 48 -10z m-792
-19 c2 -10 -4 -20 -13 -23 -21 -9 -28 0 -20 26 8 24 28 22 33 -3z m91 -18 c36
-13 39 -42 5 -47 -26 -4 -70 30 -60 46 9 15 15 15 55 1z m66 -79 c3 -5 -1 -10
-9 -10 -9 0 -16 5 -16 10 0 6 4 10 9 10 6 0 13 -4 16 -10z m101 -6 l29 -16
-30 7 c-16 3 -34 11 -39 16 -16 15 9 11 40 -7z m29 -64 c3 -5 1 -10 -4 -10 -6
0 -11 5 -11 10 0 6 2 10 4 10 3 0 8 -4 11 -10z m130 -40 c3 -5 1 -10 -4 -10
-6 0 -11 5 -11 10 0 6 2 10 4 10 3 0 8 -4 11 -10z m-521 -67 c-37 -27 -45 -14
-17 29 l28 42 3 -29 c3 -19 -2 -33 -14 -42z m195 48 c11 -20 5 -31 -16 -31 -7
0 -13 11 -13 25 0 29 15 33 29 6z m271 -21 c0 -5 -4 -10 -10 -10 -5 0 -10 5
-10 10 0 6 5 10 10 10 6 0 10 -4 10 -10z m-350 -14 c0 -13 -39 -30 -48 -21 -8
7 20 35 34 35 8 0 14 -6 14 -14z m460 -3 c0 -10 3 -28 6 -40 8 -29 -11 -30
-26 -3 -12 22 -5 60 11 60 5 0 9 -8 9 -17z m120 -13 c21 -11 41 -24 45 -30 7
-12 -204 -433 -293 -584 -36 -60 -98 -161 -139 -223 -77 -119 -164 -270 -253
-438 -29 -55 -86 -158 -126 -230 -90 -163 -354 -694 -418 -840 -26 -60 -86
-175 -134 -255 -48 -80 -116 -201 -152 -270 -36 -69 -102 -188 -147 -265 -44
-77 -111 -198 -148 -270 -38 -71 -76 -141 -85 -155 -10 -14 -44 -77 -75 -140
-32 -63 -84 -160 -115 -215 -32 -55 -79 -144 -106 -197 -27 -54 -54 -98 -60
-98 -7 0 -20 20 -30 45 -14 37 -21 45 -43 45 -22 1 -41 21 -111 117 -136 186
-200 264 -211 257 -6 -3 -8 -12 -5 -20 3 -7 80 -113 171 -235 92 -121 175
-235 185 -253 l19 -31 -42 -110 c-42 -108 -87 -198 -154 -304 -31 -48 -35 -52
-47 -36 -18 24 -28 16 -87 -72 -28 -41 -53 -72 -56 -69 -6 6 73 205 87 219 4
5 19 2 32 -7 15 -10 28 -12 38 -6 12 7 10 15 -12 45 -25 35 -25 39 -11 72 19
48 3 66 -31 34 l-24 -23 -100 124 c-149 185 -169 205 -181 192 -9 -8 -1 -24
27 -60 22 -27 42 -58 46 -70 3 -12 15 -25 25 -30 27 -12 161 -179 161 -199 0
-24 -19 -55 -33 -55 -13 0 -125 148 -143 190 -6 14 -22 36 -36 50 -13 14 -34
40 -47 57 -21 31 -51 45 -51 24 0 -13 45 -80 133 -199 65 -89 77 -122 43 -122
-8 0 -34 25 -58 55 -23 30 -46 55 -50 55 -5 0 -11 0 -15 0 -5 0 -8 -10 -8 -23
0 -13 -7 -23 -17 -25 -10 -2 -18 1 -18 7 0 6 -20 31 -45 57 -25 25 -45 52 -45
60 0 9 18 50 40 92 21 42 57 129 79 192 22 63 51 141 66 173 l26 59 18 -24
c42 -53 221 -368 221 -389 0 -27 45 -89 65 -89 32 0 22 27 -56 163 -234 402
-236 406 -210 421 9 6 273 -398 287 -439 16 -45 64 -75 64 -41 0 8 -74 130
-165 272 -91 142 -165 264 -165 271 0 27 51 137 127 276 43 78 85 154 93 169
7 16 14 27 16 25 1 -1 75 -101 163 -222 210 -286 209 -285 226 -285 32 0 4 61
-60 129 -23 25 -98 122 -166 215 -68 93 -131 171 -140 173 -13 4 -6 26 44 136
80 175 141 334 189 492 78 255 127 370 222 518 48 75 92 137 97 137 8 0 389
-440 439 -507 23 -33 60 -45 60 -20 -1 21 -59 107 -73 107 -11 0 -344 380
-395 449 -11 15 -3 39 52 162 85 188 134 279 151 279 29 0 355 -354 394 -427
13 -26 41 -31 41 -7 0 8 -11 30 -24 47 -36 50 -38 56 -16 50 29 -8 26 12 -17
95 -31 59 -35 74 -24 81 8 5 11 15 8 22 -2 8 -52 68 -108 135 -144 167 -134
152 -104 146 29 -5 31 4 9 36 -18 27 -54 30 -54 5 0 -15 -2 -15 -9 -4 -14 21
68 242 154 416 48 98 114 207 187 312 124 179 222 329 288 441 23 40 47 71 51
70 5 -2 54 -59 109 -128 93 -113 101 -127 95 -156 -6 -37 8 -52 31 -33 12 10
20 7 42 -14 20 -19 39 -27 64 -27 41 0 60 18 34 32 -9 5 -15 17 -12 26 2 9 7
34 11 55 6 35 9 38 30 33 32 -8 36 11 14 56 -11 21 -19 49 -19 63 0 16 -6 25
-15 25 -8 0 -15 -4 -15 -10 0 -13 -27 -13 -35 0 -9 15 26 110 40 110 6 0 31
-27 55 -60 34 -47 49 -60 66 -58 16 2 33 -11 63 -49 22 -29 41 -56 41 -60 0
-4 -21 -35 -45 -67 -47 -62 -51 -71 -35 -81 5 -3 32 24 60 60 29 36 60 65 70
65 11 0 31 24 55 65 31 52 43 65 63 65 21 0 24 4 19 26 -3 20 6 43 34 87 22
33 39 64 39 68 0 19 -24 19 -44 0 -21 -20 -24 -20 -30 -6 -3 9 -6 30 -6 46 0
36 23 38 80 9z m-592 -77 c-4 -49 23 -58 42 -13 11 28 30 41 30 22 0 -17 -32
-102 -40 -107 -12 -7 -143 107 -133 116 8 8 43 15 81 18 20 1 23 -3 20 -36z
m-35 -98 c26 -21 47 -45 47 -52 0 -17 -22 -63 -30 -63 -3 0 -30 29 -58 65 -38
46 -52 73 -52 95 0 36 -6 39 93 -45z m367 59 c0 -8 -4 -12 -10 -9 -5 3 -10 10
-10 16 0 5 5 9 10 9 6 0 10 -7 10 -16z m-473 -86 c32 -40 70 -85 86 -101 27
-29 34 -47 18 -47 -8 0 -181 205 -181 215 0 19 28 -5 77 -67z m541 20 c15 -15
16 -48 1 -48 -11 0 -48 40 -49 53 0 11 35 8 48 -5z m-37 -90 c5 -9 5 -19 1
-22 -4 -2 -25 23 -45 57 l-38 62 36 -40 c20 -22 41 -48 46 -57z m-291 -3 c11
-13 11 -32 1 -100 -7 -47 -16 -85 -20 -85 -5 0 -16 9 -26 20 -18 20 -18 22 -2
49 14 25 15 29 1 43 -14 14 -14 19 0 52 16 39 27 44 46 21z m-831 -1424 c46
-77 92 -173 87 -179 -2 -2 -28 23 -57 54 -30 31 -109 114 -176 183 -68 69
-123 128 -123 131 0 3 10 21 21 40 l22 35 92 -97 c50 -53 111 -128 134 -167z
m-1569 -2873 c0 -26 -18 -31 -45 -11 -27 20 -32 52 -12 72 10 10 16 6 34 -16
13 -15 23 -36 23 -45z m-1754 -49 l85 -22 51 -101 c54 -107 76 -186 79 -276 2
-89 9 -105 49 -105 30 0 40 8 90 69 72 89 121 115 215 115 243 2 375 -130 375
-374 0 -44 6 -113 14 -153 23 -120 50 -131 121 -48 39 45 54 55 88 59 25 3 46
13 52 23 30 52 48 60 215 92 91 18 179 32 195 32 17 0 71 -11 120 -25 74 -20
95 -30 118 -57 34 -40 30 -54 -15 -50 -21 2 -61 -7 -100 -23 -67 -27 -119 -77
-601 -575 -117 -121 -118 -122 -154 -115 -20 4 -67 22 -104 40 -76 39 -153 54
-429 85 -102 11 -283 34 -403 50 -121 17 -263 30 -317 30 -80 0 -99 3 -104 16
-3 9 -6 155 -6 326 0 206 -5 355 -15 442 -16 146 -34 436 -29 451 6 15 264
114 297 115 15 0 66 -10 113 -21z m1918 -13 c29 -38 34 -66 12 -66 -21 0 -69
67 -62 85 8 23 21 18 50 -19z m-209 3 c11 -17 -1 -21 -15 -4 -8 9 -8 15 -2 15
6 0 14 -5 17 -11z m95 2 c0 -12 -20 -25 -27 -18 -7 7 6 27 18 27 5 0 9 -4 9
-9z m-133 -37 c16 -25 16 -28 -2 -61 -23 -43 -41 -51 -63 -30 -14 15 -14 21 8
67 13 27 27 50 31 50 5 0 16 -12 26 -26z m378 -24 c0 -27 -22 -39 -31 -16 -8
22 3 49 19 43 6 -2 12 -14 12 -27z m-174 -12 c21 -26 24 -44 8 -53 -16 -10
-49 25 -49 52 0 29 16 30 41 1z m135 -74 c-5 -13 -10 -14 -18 -6 -6 6 -8 18
-4 28 5 13 10 14 18 6 6 -6 8 -18 4 -28z m-176 1 c10 -12 10 -18 0 -30 -19
-23 -30 -18 -30 15 0 33 11 38 30 15z m-233 -32 c-8 -7 -37 9 -31 19 3 5 12 4
20 -3 8 -6 13 -14 11 -16z m143 -12 c0 -20 -17 -37 -27 -28 -7 8 7 47 18 47 5
0 9 -9 9 -19z m-164 -47 c-2 -6 -21 -37 -43 -69 -21 -31 -44 -68 -51 -81 -7
-13 -17 -24 -23 -24 -13 0 -12 6 11 48 11 20 34 69 51 107 29 66 31 69 45 50
8 -11 13 -24 10 -31z m514 -91 c-42 -104 -54 -123 -80 -116 -12 3 -19 11 -17
17 11 27 119 188 123 183 3 -3 -9 -40 -26 -84z m-142 -21 c-21 -47 -38 -66
-38 -42 0 11 53 100 57 96 2 -2 -7 -26 -19 -54z m-218 -102 c0 -5 -10 -30 -22
-55 l-22 -45 23 -23 22 -22 34 40 c29 34 35 37 41 22 3 -10 2 -32 -3 -50 -8
-28 -13 -32 -39 -29 -16 2 -80 6 -141 8 -62 3 -113 7 -113 9 0 17 27 56 42 60
10 4 19 12 19 18 1 7 4 -1 8 -17 3 -16 11 -31 17 -33 7 -2 36 25 65 61 52 63
69 76 69 56z m-237 -41 c4 -16 3 -18 -9 -8 -7 6 -11 15 -8 20 8 13 11 11 17
-12z m527 0 c0 -19 -62 -159 -70 -159 -11 0 -50 54 -50 69 0 13 25 56 48 84
16 18 72 24 72 6z m-615 -49 c6 -17 12 -20 41 -14 29 5 34 3 34 -13 0 -34 -23
-50 -88 -62 -35 -7 -66 -10 -69 -7 -7 7 56 116 67 116 5 0 12 -9 15 -20z m488
-104 c4 -10 1 -13 -9 -9 -7 3 -14 9 -14 14 0 14 17 10 23 -5z m-1876 -735
c120 -17 301 -39 403 -51 311 -36 371 -47 465 -91 47 -21 85 -43 85 -48 0 -5
-16 -21 -36 -36 l-35 -27 -52 22 c-148 64 -358 105 -712 140 -152 15 -303 45
-374 76 -121 53 -54 56 256 15z m-331 -22 c3 -6 1 -16 -5 -22 -16 -16 -14 -37
5 -59 16 -16 15 -18 0 -24 -22 -9 -22 -8 -30 59 -6 47 -5 57 8 57 8 0 18 -5
22 -11z m113 -160 c54 -65 59 -76 36 -85 -8 -3 -17 -14 -20 -25 -6 -18 -7 -18
-36 3 -26 19 -29 28 -29 76 0 29 -5 62 -10 73 -22 39 9 18 59 -42z m176 22
c22 -5 70 -12 108 -16 37 -4 67 -10 67 -15 0 -5 -14 -19 -31 -31 -27 -19 -34
-20 -55 -9 -17 10 -30 10 -47 3 -20 -9 -25 -7 -39 17 -10 18 -26 30 -44 32
-31 3 -46 28 -17 28 10 0 36 -4 58 -9z m352 -42 c112 -15 128 -22 68 -30 -27
-4 -71 -11 -97 -15 -27 -3 -48 -3 -48 2 0 5 -3 19 -6 32 -4 12 -4 22 -1 22 3
0 41 -5 84 -11z m278 -44 c72 -9 83 -14 65 -25 -25 -16 -92 -11 -137 10 -51
23 -55 34 -10 27 17 -3 55 -9 82 -12z m-275 -105 c0 -5 -5 -10 -11 -10 -5 0
-7 5 -4 10 3 6 8 10 11 10 2 0 4 -4 4 -10z m210 -30 c0 -5 -4 -10 -10 -10 -5
0 -10 5 -10 10 0 6 5 10 10 10 6 0 10 -4 10 -10z m-820 -24 c0 -2 -11 -6 -25
-8 -14 -3 -25 -1 -25 3 0 5 11 9 25 9 14 0 25 -2 25 -4z m805 -128 c14 -6 25
-14 25 -18 0 -5 -61 -52 -214 -165 -48 -35 -45 -30 62 104 41 50 80 91 87 91
8 0 26 -5 40 -12z m-277 -250 c-6 -16 -68 -63 -68 -51 0 18 41 63 57 63 8 0
13 -5 11 -12z m-523 -168 c6 -9 -20 -80 -29 -80 -4 0 -6 20 -6 45 0 33 4 45
14 45 8 0 17 -4 21 -10z"/>
<path d="M8525 10520 c-8 -13 3 -88 17 -114 6 -10 26 -32 46 -50 82 -69 138
-126 155 -155 10 -17 15 -31 10 -31 -4 0 -48 32 -96 70 -92 72 -121 86 -156
75 -36 -11 -23 -30 53 -73 73 -42 104 -67 93 -78 -10 -10 -80 15 -103 37 -14
14 -31 20 -44 16 -11 -3 -23 -1 -26 4 -20 33 -178 -27 -510 -192 l-181 -90
-120 -122 c-66 -67 -150 -166 -188 -220 -70 -99 -86 -112 -141 -105 -24 2 -28
7 -26 28 2 14 23 59 47 100 23 41 54 98 69 127 48 96 156 205 285 287 210 134
452 243 598 271 51 10 98 24 104 32 18 21 -19 64 -72 85 -58 22 -101 22 -263
-2 -167 -24 -283 -66 -384 -138 -40 -29 -98 -63 -128 -75 -31 -12 -87 -48
-125 -80 -60 -50 -92 -92 -220 -284 -82 -124 -148 -230 -147 -235 9 -27 35 5
170 207 163 244 231 318 328 356 30 13 90 47 134 77 102 71 220 116 361 136
210 29 207 29 258 7 26 -11 47 -24 47 -29 0 -5 -39 -17 -87 -27 -48 -9 -109
-25 -135 -36 -119 -47 -331 -155 -449 -230 -190 -120 -248 -191 -405 -489 -13
-25 -25 -61 -26 -80 l-3 -35 76 -3 77 -3 77 108 c43 59 130 161 194 226 l116
118 200 99 c291 143 425 198 425 172 0 -10 -114 -95 -255 -189 -66 -44 -135
-99 -152 -121 -18 -22 -95 -105 -170 -184 l-138 -143 -33 -102 c-31 -96 -32
-103 -18 -137 8 -20 22 -36 30 -36 8 0 86 75 173 167 377 398 485 502 538 522
27 10 52 17 54 15 3 -3 -20 -30 -51 -62 -31 -31 -102 -117 -158 -190 -119
-156 -190 -300 -190 -387 0 -27 4 -55 8 -61 11 -17 45 -32 60 -27 7 3 47 57
89 121 60 93 110 151 237 280 144 145 186 180 186 154 0 -15 -86 -147 -178
-274 -67 -93 -108 -162 -149 -253 l-57 -125 34 -70 c21 -43 40 -70 49 -70 9 0
61 62 116 137 120 165 152 203 172 203 11 0 13 -7 8 -32 -18 -81 -115 -266
-158 -299 -26 -21 -18 -40 28 -64 l36 -20 62 68 c34 37 66 67 70 67 5 0 -11
-35 -34 -78 -44 -81 -46 -112 -10 -112 25 0 111 37 134 57 32 29 28 7 -8 -47
-59 -88 -44 -120 65 -139 54 -9 70 -17 95 -45 41 -46 156 -93 190 -78 20 9 24
19 27 59 l3 48 49 5 c64 7 79 28 48 69 -26 36 -27 41 -7 41 8 0 24 9 35 20 19
19 19 21 3 55 -16 33 -15 39 5 129 28 123 28 234 -2 577 l-23 266 -74 137
c-73 136 -114 189 -269 351 l-58 61 -149 42 c-168 47 -160 46 -168 32z m55
-50 c0 -5 -2 -10 -4 -10 -3 0 -8 5 -11 10 -3 6 -1 10 4 10 6 0 11 -4 11 -10z
m301 -116 c70 -71 82 -94 50 -94 -11 0 -23 -4 -26 -10 -14 -23 -35 -9 -35 23
0 25 -9 42 -41 72 -22 22 -45 48 -50 58 -8 14 -6 17 15 17 17 0 44 -20 87 -66z
m-140 -41 c21 -24 39 -52 39 -63 0 -11 -1 -20 -3 -20 -3 0 -147 140 -147 144
0 2 16 -2 36 -8 20 -6 53 -30 75 -53z m297 -125 c11 -13 54 -86 96 -163 l75
-140 15 -190 c9 -104 19 -209 22 -232 6 -47 0 -51 -35 -24 -22 17 -23 19 -7
49 23 45 21 55 -29 110 -25 27 -45 55 -45 61 0 6 14 33 31 61 48 78 22 125
-57 106 l-27 -7 8 58 c3 32 7 78 8 103 2 44 1 45 -33 50 l-35 5 -6 76 c-4 42
-10 82 -13 88 -13 20 10 12 32 -11z m-514 -63 c25 -20 46 -40 46 -45 0 -9 -80
-49 -182 -90 -61 -25 -153 -114 -522 -503 -111 -118 -162 -165 -169 -158 -8 8
-2 38 18 103 l30 93 125 130 c69 72 145 154 169 183 29 34 89 82 169 135 69
45 155 105 191 134 36 29 69 53 72 53 3 0 27 -16 53 -35z m408 -2 c2 -27 3
-50 6 -121 2 -28 8 -36 32 -45 31 -12 33 -20 20 -72 -7 -30 -7 -29 -34 30 -15
33 -43 92 -61 130 l-35 70 23 17 c32 25 47 22 49 -9z m-253 -17 c37 -17 79
-77 85 -121 l6 -40 -25 52 c-19 40 -36 60 -80 87 -30 20 -55 38 -55 42 0 6 35
-3 69 -20z m167 -68 c21 -23 35 -68 93 -289 29 -107 31 -128 31 -287 0 -149
-3 -180 -21 -232 -12 -36 -18 -71 -15 -86 6 -23 -35 -207 -55 -245 -5 -9 -22
-19 -39 -22 -22 -5 -35 -16 -47 -42 -9 -19 -20 -35 -24 -35 -21 0 -17 23 10
60 17 24 49 100 75 178 36 109 48 161 56 255 11 114 10 121 -14 205 -18 61
-26 109 -25 162 1 86 -53 374 -74 399 -8 9 -18 23 -22 30 -11 19 43 -20 71
-51z m-218 -40 c12 -19 22 -56 24 -87 3 -52 2 -54 -27 -64 -18 -5 -95 -73
-188 -166 -127 -125 -173 -179 -235 -273 -42 -65 -83 -118 -89 -118 -9 0 -13
17 -13 51 0 84 63 210 181 364 110 143 284 325 310 325 10 0 26 -15 37 -32z
m126 -191 c43 -97 46 -110 45 -183 -2 -116 -8 -136 -51 -159 -20 -11 -39 -17
-41 -15 -3 3 0 29 6 57 10 49 3 176 -20 367 -9 70 7 54 61 -67z m-75 -146 c10
-80 9 -105 -5 -168 -16 -71 -18 -76 -68 -112 -35 -26 -85 -84 -154 -180 -57
-77 -105 -141 -107 -141 -8 0 -45 78 -45 93 0 42 117 255 217 394 59 84 116
167 126 184 10 17 19 30 21 28 2 -2 9 -46 15 -98z m369 47 c-6 -18 -28 -21
-28 -4 0 9 7 16 16 16 9 0 14 -5 12 -12z m46 -157 l28 -30 -21 -29 c-26 -37
-26 -52 -1 -85 11 -14 20 -27 20 -29 0 -2 -14 -15 -31 -27 l-32 -24 7 76 c5
50 4 77 -3 82 -13 7 -15 95 -3 95 5 0 21 -13 36 -29z m-219 -241 c-6 -108 -36
-237 -65 -280 -11 -17 -9 0 21 154 10 54 19 136 19 182 0 45 3 90 7 100 15 39
24 -42 18 -156z m-105 110 c0 -6 -16 -43 -36 -83 -40 -78 -66 -161 -57 -183 5
-13 -132 -174 -149 -174 -17 0 -6 32 31 90 46 70 96 186 113 260 10 42 19 57
47 76 39 26 51 29 51 14z m478 -135 l-3 -25 -35 21 -34 21 34 29 35 28 3 -25
c2 -13 2 -35 0 -49z m-509 -67 c-18 -33 -24 -4 -8 35 12 28 14 29 17 10 2 -12
-2 -32 -9 -45z m36 -134 c-9 -52 -24 -103 -33 -114 -17 -20 -92 -56 -92 -43 0
16 135 274 138 263 2 -6 -4 -54 -13 -106z m441 86 c30 0 34 -3 34 -27 0 -16
-5 -35 -10 -43 -7 -12 -13 -11 -37 10 -53 46 -71 79 -37 66 9 -3 31 -6 50 -6z
m-203 -82 c9 -5 9 -10 -1 -20 -6 -6 -12 -27 -12 -44 0 -18 -4 -36 -10 -39 -5
-3 -18 -26 -29 -50 -11 -25 -25 -45 -30 -45 -6 0 -11 3 -11 6 0 13 42 173 58
219 l17 50 3 -35 c2 -19 9 -38 15 -42z m47 32 c0 -5 -7 -7 -15 -4 -8 4 -15 8
-15 10 0 2 7 4 15 4 8 0 15 -4 15 -10z m154 -141 c-3 -5 -10 -7 -15 -3 -5 3
-7 10 -3 15 3 5 10 7 15 3 5 -3 7 -10 3 -15z m-174 -121 c0 -6 -13 -7 -32 -3
-42 9 -44 11 -29 29 11 14 16 13 37 -1 13 -8 24 -20 24 -25z m60 -118 c0 -5
-7 -10 -15 -10 -8 0 -15 5 -15 10 0 6 7 10 15 10 8 0 15 -4 15 -10z"/>
<path d="M6116 6323 c-8 -16 -33 -52 -55 -82 -42 -56 -51 -81 -28 -81 17 1
140 167 132 179 -11 19 -34 12 -49 -16z"/>
<path d="M5953 6048 c2 -7 10 -13 17 -13 7 0 15 6 18 13 2 7 -5 12 -18 12 -13
0 -20 -5 -17 -12z"/>
<path d="M5656 5588 c-20 -11 -21 -61 -1 -78 32 -27 73 7 62 52 -7 28 -35 40
-61 26z"/>
<path d="M5500 5204 c-14 -37 4 -66 38 -62 23 2 28 9 30 37 5 53 -50 74 -68
25z"/>
<path d="M5302 4868 c-17 -17 -15 -31 9 -62 25 -32 64 -34 80 -5 23 43 -54
102 -89 67z"/>
<path d="M5124 4546 c-10 -26 3 -59 39 -100 26 -31 37 -37 54 -32 36 12 38 43
6 94 -23 38 -35 48 -61 50 -22 2 -34 -2 -38 -12z"/>
<path d="M7656 7331 c-5 -8 168 -270 188 -283 14 -10 28 1 22 18 -10 26 -187
274 -196 274 -5 0 -11 -4 -14 -9z"/>
<path d="M7570 7215 c0 -20 7 -50 16 -68 l17 -32 -21 19 c-20 17 -22 17 -28 2
-4 -11 16 -49 60 -114 36 -54 66 -104 66 -111 0 -7 12 -28 28 -46 15 -18 47
-61 70 -94 42 -59 72 -78 72 -45 0 9 -8 28 -19 42 -10 15 -22 37 -25 50 -4 12
-41 84 -83 158 -41 75 -72 138 -70 141 3 2 54 -54 113 -126 103 -122 144 -155
144 -113 -1 28 -58 112 -73 106 -9 -3 -56 44 -128 130 -63 75 -119 136 -126
136 -8 0 -13 -14 -13 -35z"/>
<path d="M7505 7010 c-4 -6 -3 -16 3 -23 5 -7 62 -77 127 -157 169 -207 195
-233 195 -196 0 14 -286 366 -308 380 -6 3 -14 2 -17 -4z"/>
<path d="M7435 6970 c-4 -6 22 -57 58 -113 35 -56 77 -124 94 -152 41 -69 76
-62 48 10 -6 14 3 10 29 -14 27 -26 39 -32 47 -24 9 9 -22 49 -121 157 -74 80
-137 146 -141 146 -4 0 -11 -5 -14 -10z"/>
<path d="M7350 6917 c0 -15 178 -263 208 -291 13 -11 28 -16 38 -12 15 6 12
12 -18 44 -19 20 -70 87 -113 147 -44 61 -84 113 -90 117 -15 11 -25 9 -25 -5z"/>
<path d="M7350 6718 c1 -17 151 -210 167 -216 27 -8 26 30 -1 55 -15 14 -52
58 -82 99 -50 68 -85 93 -84 62z"/>
<path d="M7266 6511 c-8 -12 86 -135 158 -206 34 -33 83 -86 110 -118 45 -53
71 -67 71 -40 0 23 -309 373 -329 373 -3 0 -7 -4 -10 -9z"/>
<path d="M7245 6440 c-7 -11 12 -50 25 -50 16 0 21 19 10 40 -12 22 -25 26
-35 10z"/>
<path d="M7135 6420 c-13 -20 8 -47 107 -135 55 -49 131 -129 170 -177 39 -49
74 -88 79 -88 44 0 -64 141 -214 279 -56 51 -106 102 -111 112 -10 21 -22 24
-31 9z"/>
<path d="M7075 6271 c-9 -15 -1 -24 168 -215 131 -147 167 -179 167 -146 0 10
-283 334 -312 358 -11 9 -18 10 -23 3z"/>
<path d="M6940 5769 c0 -6 36 -50 81 -97 44 -48 125 -154 181 -237 94 -141
118 -169 132 -147 6 10 5 11 -121 193 -131 190 -273 340 -273 288z"/>
<path d="M6835 5749 c-4 -5 33 -51 82 -102 49 -51 142 -159 206 -240 104 -130
137 -161 137 -126 0 21 -203 270 -320 392 -72 76 -95 93 -105 76z"/>
<path d="M6725 5640 c-4 -6 11 -32 33 -58 289 -348 366 -437 378 -440 31 -7
11 33 -49 102 -35 39 -125 146 -202 239 -76 92 -142 167 -146 167 -4 0 -11 -5
-14 -10z"/>
<path d="M6662 5434 c3 -11 71 -112 152 -225 80 -114 146 -213 146 -221 0 -17
61 -78 78 -78 21 0 13 31 -17 69 -15 20 -97 133 -180 251 -138 194 -193 257
-179 204z"/>
<path d="M6616 5292 c-8 -14 376 -441 397 -441 9 -1 17 3 17 8 0 11 -382 434
-397 438 -6 2 -14 0 -17 -5z"/>
<path d="M6596 5212 c-8 -14 5 -50 20 -56 22 -8 27 13 10 39 -18 27 -22 29
-30 17z"/>
<path d="M6570 5069 c0 -12 62 -105 136 -204 65 -88 171 -182 186 -167 8 8
-14 35 -76 95 -50 50 -86 93 -86 105 0 10 9 30 19 44 11 13 21 32 23 42 6 33
-19 28 -42 -9 -12 -19 -25 -35 -29 -35 -5 0 -29 32 -55 70 -41 62 -76 89 -76
59z"/>
<path d="M6424 4945 c-4 -9 42 -73 119 -168 152 -186 157 -191 170 -178 7 7 7
14 0 23 -67 85 -275 338 -279 338 -3 0 -7 -7 -10 -15z"/>
<path d="M6530 4939 c0 -12 225 -278 263 -312 34 -30 44 -3 12 35 -208 248
-275 315 -275 277z"/>
<path d="M6400 4808 c0 -7 40 -64 88 -128 49 -63 103 -137 122 -164 55 -81 82
-102 93 -72 4 9 -23 51 -65 103 -39 48 -103 130 -141 181 -63 84 -97 112 -97
80z"/>
<path d="M6380 4678 c0 -19 198 -272 215 -276 31 -7 12 27 -86 153 -95 122
-129 155 -129 123z"/>
<path d="M6290 4639 c0 -5 41 -58 91 -117 84 -99 119 -147 213 -295 35 -55 58
-68 64 -36 5 27 -121 203 -267 373 -68 78 -101 103 -101 75z"/>
<path d="M6294 4446 c-4 -9 35 -64 101 -142 58 -69 109 -133 112 -143 9 -24
65 -81 80 -81 31 0 6 43 -93 160 -58 69 -122 146 -141 173 -36 49 -50 57 -59
33z"/>
<path d="M6225 4340 c-8 -13 277 -374 298 -378 10 -2 17 1 17 7 0 13 -290 381
-301 381 -4 0 -11 -4 -14 -10z"/>
<path d="M5965 3950 c-3 -5 20 -33 51 -62 31 -29 99 -113 151 -185 52 -73 101
-133 109 -133 24 0 16 48 -12 73 -14 12 -59 68 -100 124 -65 89 -165 193 -186
193 -4 0 -10 -4 -13 -10z"/>
<path d="M5790 3507 c0 -7 6 -22 14 -33 19 -25 37 -8 25 24 -9 24 -39 31 -39
9z"/>
<path d="M5750 3445 c0 -9 11 -31 25 -49 29 -38 31 -46 10 -46 -8 0 -15 -6
-15 -13 0 -23 37 -50 60 -44 16 4 31 -10 76 -76 31 -45 60 -92 65 -104 9 -24
33 -31 44 -13 7 11 -64 119 -173 264 -67 90 -92 112 -92 81z"/>
<path d="M5640 3102 c0 -14 23 -32 42 -32 21 0 23 11 6 28 -13 13 -48 16 -48
4z"/>
</g>
</svg>
