<?xml version="1.0" standalone="no"?>
<!DOCTYPE svg PUBLIC "-//W3C//DTD SVG 20010904//EN"
 "http://www.w3.org/TR/2001/REC-SVG-20010904/DTD/svg10.dtd">
<svg version="1.0" xmlns="http://www.w3.org/2000/svg"
 width="1280.000000pt" height="1280.000000pt" viewBox="0 0 1280.000000 1280.000000"
 preserveAspectRatio="xMidYMid meet">
<metadata>
Created by potrace 1.15, written by Peter Selinger 2001-2017
</metadata>
<g transform="translate(0.000000,1280.000000) scale(0.100000,-0.100000)"
fill="#000000" stroke="none">
<path d="M11626 11389 c-22 -11 -73 -42 -115 -67 -97 -60 -110 -66 -217 -92
-101 -26 -147 -47 -289 -134 -114 -71 -511 -270 -630 -316 -44 -18 -89 -36
-100 -41 -11 -5 -65 -25 -119 -44 -109 -38 -156 -67 -216 -131 -44 -48 -55
-78 -46 -128 7 -36 24 -54 139 -141 48 -37 71 -62 86 -97 37 -83 39 -80 -164
-207 -119 -74 -112 -69 -238 -152 -56 -36 -108 -64 -116 -62 -9 3 -45 45 -80
93 -81 112 -88 119 -253 229 -159 106 -207 129 -298 141 -36 5 -120 16 -187
26 -121 17 -123 17 -370 -10 -136 -15 -268 -32 -293 -37 -25 -5 -148 -30 -275
-55 -258 -51 -242 -45 -545 -213 -205 -114 -218 -123 -340 -230 -47 -41 -99
-86 -115 -100 -138 -118 -203 -179 -361 -337 -176 -175 -182 -183 -208 -255
-40 -108 -45 -119 -53 -119 -5 0 -59 50 -122 111 -62 60 -167 153 -233 206
-132 107 -142 116 -258 258 -45 55 -94 114 -108 130 -15 17 -54 64 -87 105
-33 41 -69 86 -80 99 -87 108 -115 129 -289 215 -158 78 -181 86 -304 110 -72
14 -145 26 -160 26 -33 0 -298 -44 -397 -65 -114 -25 -207 -45 -255 -56 -160
-33 -238 -62 -306 -114 -18 -14 -108 -63 -200 -110 -93 -48 -184 -98 -203
-113 -65 -49 -336 -328 -450 -462 -63 -74 -134 -156 -157 -181 -59 -64 -79
-108 -114 -250 -17 -68 -37 -149 -45 -179 -29 -115 -36 -147 -45 -215 -5 -38
-16 -120 -24 -182 -16 -118 -15 -148 19 -383 21 -143 25 -155 129 -394 8 -17
24 -56 36 -86 12 -30 31 -73 41 -95 10 -22 27 -62 37 -90 19 -49 50 -117 98
-220 16 -34 65 -93 156 -185 116 -118 139 -147 182 -230 77 -149 176 -285 321
-438 48 -50 105 -119 127 -152 69 -102 161 -202 244 -265 43 -33 81 -62 84
-65 8 -9 286 -210 367 -266 45 -30 72 -55 70 -65 -1 -8 -40 -48 -87 -88 -47
-40 -98 -85 -115 -99 -16 -14 -70 -62 -120 -107 -49 -44 -151 -132 -225 -195
-74 -63 -137 -116 -140 -119 -3 -4 -36 -33 -75 -66 -38 -33 -141 -129 -227
-213 -86 -85 -181 -173 -211 -196 -30 -22 -93 -71 -140 -108 -141 -110 -160
-120 -191 -108 -42 16 -76 13 -461 -34 -198 -25 -398 -47 -445 -51 -188 -13
-222 -33 -457 -265 -104 -102 -217 -210 -253 -239 -69 -57 -195 -169 -294
-261 -32 -30 -100 -107 -151 -170 -52 -63 -109 -133 -128 -155 -53 -59 -57
-116 -11 -156 29 -25 65 -30 119 -14 48 13 435 142 560 186 137 48 228 71 370
95 83 14 164 29 180 34 17 5 51 16 77 24 53 16 59 13 95 -54 10 -19 30 -53 44
-75 53 -83 54 -77 -3 -141 -28 -33 -97 -108 -153 -169 -56 -60 -124 -135 -151
-165 -116 -130 -178 -194 -324 -339 -85 -85 -163 -166 -172 -180 -22 -32 -23
-89 -4 -117 8 -11 33 -26 55 -33 56 -16 93 -5 286 89 91 45 226 100 313 129
84 28 174 59 200 70 170 69 215 85 318 111 79 20 152 48 227 86 128 64 150 81
183 146 13 26 62 86 108 133 70 71 92 101 134 187 27 57 55 121 61 143 7 25
11 159 11 365 l0 325 523 522 c287 286 565 558 617 603 52 45 109 94 125 109
126 110 170 146 243 194 l84 56 80 -29 c95 -35 83 -25 229 -171 64 -64 150
-139 191 -167 73 -49 124 -102 239 -247 52 -64 169 -231 169 -240 0 -17 121
-173 158 -202 26 -21 52 -42 58 -48 6 -5 43 -35 82 -65 62 -48 117 -115 167
-202 6 -10 46 -74 90 -144 44 -69 85 -133 90 -142 47 -78 194 -292 223 -324
l36 -40 -27 -48 c-32 -57 -34 -81 -8 -104 26 -23 44 -13 124 70 39 41 77 95
105 148 31 61 50 87 70 95 15 6 46 38 67 70 84 124 201 270 215 271 9 0 20 -4
25 -9 19 -18 55 9 112 86 32 43 60 80 64 83 3 3 47 59 98 125 132 169 133 171
365 455 53 65 171 177 316 299 41 35 95 82 120 105 74 68 238 206 355 300 61
48 121 98 135 110 14 12 53 42 87 66 66 48 133 137 133 177 0 17 9 28 35 40
23 11 64 56 126 137 51 67 179 229 284 361 106 132 197 250 204 263 10 18 9
27 -5 51 l-17 28 100 134 c54 74 132 193 172 264 41 72 88 153 106 180 33 52
47 80 85 175 24 61 76 166 123 250 17 30 37 66 44 80 8 14 23 39 33 55 25 41
24 64 -4 94 -23 24 -24 30 -15 71 6 25 14 74 19 110 4 36 17 92 28 125 11 33
27 85 35 115 8 30 27 92 41 136 30 95 32 116 10 150 -14 21 -16 40 -10 117 9
122 11 128 51 155 32 21 35 26 35 74 0 46 -19 130 -41 183 -13 31 -69 278
-100 440 -5 28 -16 84 -24 125 -33 164 -33 168 29 194 17 8 41 22 52 32 12 11
61 44 109 74 48 30 107 70 131 87 45 33 69 34 79 4 8 -27 46 -57 88 -71 41
-13 96 -1 129 27 39 35 130 272 158 415 28 143 31 151 132 352 103 208 110
218 200 308 67 68 90 99 142 193 16 28 34 57 42 66 8 8 14 19 14 23 0 14 40
60 169 192 144 146 162 178 141 247 -22 76 -87 98 -164 56z m-286 -355 c0 -10
-62 -118 -107 -187 -25 -37 -80 -103 -124 -147 -76 -77 -83 -88 -194 -313 -69
-139 -119 -253 -124 -282 -36 -206 -76 -332 -106 -342 -9 -2 -160 237 -223
353 -35 66 -98 137 -139 158 -18 9 -42 33 -54 54 -12 21 -50 60 -85 87 -34 27
-60 54 -57 61 2 6 25 19 51 28 61 22 187 70 282 108 121 48 495 236 620 312
63 38 138 79 165 92 47 21 95 31 95 18z m-2515 -960 c66 -9 139 -22 162 -29
34 -11 257 -151 313 -197 16 -13 272 -352 301 -398 8 -14 24 -50 34 -80 10
-30 28 -84 41 -120 33 -96 79 -239 92 -285 84 -306 109 -431 132 -656 23 -229
23 -331 -3 -454 -8 -38 -25 -122 -37 -185 -27 -141 -72 -295 -157 -535 -38
-109 -54 -145 -95 -213 -21 -34 -38 -64 -38 -66 0 -2 -22 -41 -48 -87 -27 -46
-62 -109 -79 -139 -16 -30 -56 -100 -88 -155 -32 -55 -78 -138 -103 -185 -51
-96 -102 -178 -123 -200 -8 -8 -37 -44 -64 -80 -27 -36 -52 -67 -55 -70 -3 -3
-50 -63 -104 -135 -55 -71 -122 -155 -149 -185 -80 -88 -107 -118 -212 -240
-54 -63 -122 -140 -150 -170 -75 -83 -207 -230 -228 -254 -100 -114 -168 -182
-222 -220 -35 -25 -66 -46 -69 -46 -7 0 -327 -194 -386 -233 -68 -47 -517
-500 -595 -602 -94 -122 -307 -441 -327 -490 -9 -22 -19 -52 -22 -67 -4 -16
-12 -28 -19 -28 -13 0 -145 199 -288 433 -99 163 -130 201 -212 264 -34 26
-64 50 -67 53 -3 3 -25 21 -50 40 -56 43 -54 41 -147 180 -102 151 -139 201
-257 348 -79 98 -115 134 -175 174 -42 28 -139 113 -216 188 -77 76 -159 147
-182 159 -24 12 -43 23 -43 25 0 3 44 42 98 87 53 46 99 87 102 91 3 4 22 20
42 35 19 16 82 69 140 118 57 50 124 106 148 125 24 19 71 58 104 86 34 27
115 93 181 146 66 52 222 195 345 318 201 199 225 219 228 197 2 -15 -15 -117
-38 -229 -70 -341 -70 -346 2 -452 36 -54 41 -70 48 -144 9 -104 32 -135 94
-130 58 4 80 39 84 134 5 93 -10 151 -60 231 l-39 61 56 279 c30 153 63 311
71 352 l17 74 71 -6 c39 -4 100 -16 136 -28 59 -19 89 -22 330 -24 146 -1 327
1 402 6 121 7 143 11 181 33 75 44 94 118 43 163 -32 27 -63 29 -114 6 -32
-14 -85 -17 -385 -21 -251 -3 -356 -1 -380 8 -53 20 -140 39 -174 40 -25 0
-46 12 -87 49 -74 67 -693 477 -730 484 -91 16 -140 -75 -78 -143 15 -17 106
-84 202 -149 147 -99 176 -122 178 -145 4 -31 -13 -56 -37 -56 -19 0 -477
-366 -786 -628 -11 -10 -78 -65 -150 -122 -71 -58 -132 -107 -135 -110 -29
-30 -150 -120 -161 -120 -19 0 -59 36 -97 85 -24 32 -44 46 -95 63 -86 31 -99
41 -151 120 -24 37 -84 106 -132 154 -76 74 -105 95 -194 138 -104 52 -106 53
-333 278 -163 162 -249 256 -300 327 -39 55 -96 127 -127 160 -83 88 -138 177
-175 280 -41 114 -123 278 -187 373 -39 59 -53 91 -68 160 -11 48 -24 106 -30
130 -5 23 -10 104 -10 180 0 117 3 147 22 197 15 40 24 94 28 161 l5 101 57
70 c63 78 117 131 288 282 63 56 122 113 130 127 13 21 13 26 -2 40 -10 11
-25 14 -40 11 -36 -9 -347 -288 -424 -382 -87 -104 -94 -120 -94 -209 0 -60
-7 -100 -25 -154 -23 -68 -25 -89 -25 -245 0 -131 5 -195 20 -267 28 -137 31
-145 100 -254 71 -113 145 -264 185 -379 32 -92 93 -186 180 -277 33 -36 89
-105 123 -155 44 -66 127 -155 304 -331 242 -241 244 -242 348 -294 126 -63
230 -157 318 -289 48 -71 65 -88 107 -107 28 -13 55 -24 62 -24 32 0 67 -29
98 -81 19 -31 35 -61 35 -67 0 -13 -13 -26 -70 -72 -24 -19 -77 -63 -118 -97
-42 -35 -81 -63 -89 -63 -22 0 -612 433 -651 478 -13 15 -68 86 -121 157 -54
72 -128 158 -164 192 -92 87 -213 253 -280 386 -53 105 -64 120 -191 247 -98
98 -140 148 -156 185 -27 60 -190 441 -232 540 -16 39 -36 85 -45 104 -8 18
-27 115 -41 214 l-26 181 18 126 c26 184 44 277 87 450 49 193 53 203 109 265
25 28 100 114 167 191 66 76 186 202 265 280 142 140 144 141 283 211 158 79
203 104 260 142 60 41 76 46 305 96 41 9 93 20 115 26 101 24 370 69 414 69
21 0 82 -9 137 -20 79 -16 130 -35 250 -94 171 -84 131 -47 382 -356 227 -280
253 -309 387 -415 71 -56 205 -178 297 -269 92 -91 179 -171 194 -176 42 -16
92 -2 118 34 13 17 38 78 56 136 19 58 41 123 51 145 17 40 248 281 374 389
32 28 127 112 211 186 149 133 173 149 394 268 36 19 90 50 121 68 81 48 115
61 226 84 54 11 118 24 143 30 229 49 575 97 720 99 36 1 119 -6 185 -15z
m1487 -116 c24 -37 27 -66 10 -80 -8 -7 -23 -31 -33 -54 -15 -34 -33 -49 -111
-95 -71 -41 -122 -82 -212 -171 -65 -65 -126 -118 -135 -118 -11 0 -33 32 -63
90 l-47 90 77 50 c42 27 167 108 277 179 110 72 205 130 211 131 7 0 18 -10
26 -22z m-252 -698 c0 -5 -4 -10 -10 -10 -5 0 -10 5 -10 10 0 6 5 10 10 10 6
0 10 -4 10 -10z m-3810 -2620 c21 -11 41 -24 44 -28 8 -13 -30 -44 -90 -76
-34 -18 -121 -98 -265 -242 -126 -127 -274 -263 -359 -332 -172 -139 -110 -87
-527 -439 -316 -266 -347 -289 -403 -306 -50 -14 -65 -24 -81 -51 -11 -19 -52
-57 -92 -84 -40 -28 -81 -59 -92 -69 -12 -10 -54 -47 -95 -83 -107 -93 -141
-123 -159 -141 -9 -8 -48 -43 -87 -76 -40 -33 -290 -279 -556 -546 -345 -346
-493 -488 -514 -493 -58 -14 -83 -33 -94 -72 -7 -29 -25 -51 -71 -88 -33 -26
-63 -53 -67 -60 -22 -38 -260 -288 -327 -344 -113 -95 -192 -157 -206 -163
-31 -11 -127 151 -116 194 10 40 246 271 374 366 65 48 120 90 123 93 3 3 21
17 40 30 19 13 37 27 40 30 3 3 59 46 124 95 66 50 145 110 176 135 32 25 109
85 171 133 63 48 186 159 274 245 88 86 237 222 330 302 94 79 175 149 181
155 13 11 140 123 345 301 137 120 414 350 499 413 25 19 47 38 50 41 5 6 43
38 200 164 36 29 138 113 227 187 89 74 188 155 220 181 32 26 148 120 258
210 111 90 234 190 275 223 129 105 178 154 185 185 8 35 14 36 65 10z m-3710
-2837 c0 -5 -44 -39 -97 -78 -53 -38 -101 -74 -107 -80 -6 -5 -29 -23 -51 -39
-22 -16 -122 -112 -222 -213 -222 -223 -212 -218 -508 -268 -165 -28 -164 -28
-412 -112 -106 -35 -200 -63 -210 -61 -14 3 -7 15 37 59 30 30 86 82 125 115
181 154 253 219 420 384 99 97 197 187 217 199 30 18 67 25 200 37 90 8 244
25 343 38 193 25 265 30 265 19z m372 -480 c2 -10 3 -118 1 -240 l-3 -221 -47
-91 c-33 -62 -70 -112 -119 -163 -39 -40 -87 -98 -107 -130 -33 -51 -45 -60
-129 -101 -53 -26 -137 -56 -194 -70 -56 -14 -164 -50 -240 -80 -161 -64 -343
-127 -367 -127 -17 0 -24 16 -9 22 7 3 106 109 415 446 53 59 111 126 129 149
17 23 49 55 72 71 23 17 51 38 62 48 12 11 66 55 120 99 119 96 147 124 287
283 59 67 112 122 116 122 5 0 11 -8 13 -17z"/>
<path d="M8245 9676 c-16 -7 -70 -32 -118 -55 -49 -22 -90 -41 -91 -41 -2 0
-50 -22 -107 -49 -57 -27 -131 -61 -164 -76 -33 -15 -92 -43 -132 -61 -73 -34
-105 -66 -84 -87 26 -26 10 -43 -70 -76 -58 -24 -83 -40 -92 -58 -10 -22 -8
-28 12 -44 13 -11 32 -19 42 -19 20 0 82 23 171 64 65 30 90 32 108 11 20 -24
32 -21 220 61 l65 29 293 3 292 3 53 -24 c102 -48 280 -204 366 -320 41 -56
131 -244 131 -273 0 -8 -10 -14 -23 -14 -49 0 -55 -22 -59 -205 -4 -146 -9
-185 -33 -275 l-28 -104 16 -91 c40 -225 41 -231 28 -338 -6 -56 -18 -160 -27
-232 -8 -71 -20 -150 -26 -175 -6 -25 -13 -58 -15 -75 -2 -16 -8 -39 -13 -50
-5 -11 -32 -90 -60 -175 -46 -139 -56 -159 -93 -196 -32 -30 -47 -57 -64 -110
-12 -38 -31 -94 -43 -124 -12 -30 -25 -66 -30 -80 l-7 -25 -6 25 c-4 14 -8 38
-9 54 -2 16 -12 35 -24 42 -32 21 -58 -10 -73 -87 -27 -134 -40 -168 -70 -184
-21 -10 -35 -30 -49 -68 -68 -180 -170 -407 -184 -407 -12 0 -9 40 7 85 20 55
19 89 -4 109 -22 20 -56 14 -70 -12 -5 -9 -32 -87 -60 -172 -28 -85 -55 -164
-60 -175 -32 -72 -31 -72 -26 -5 2 36 7 92 11 125 5 53 4 62 -15 79 -19 17
-22 17 -44 3 -24 -16 -30 -28 -61 -127 -10 -30 -28 -84 -41 -120 -13 -36 -38
-105 -55 -155 -17 -49 -38 -103 -45 -120 -7 -16 -15 -37 -19 -45 -3 -8 -4 19
-1 60 19 268 19 259 0 280 -22 25 -37 25 -57 3 -18 -22 -38 -98 -38 -148 0
-31 -48 -248 -66 -295 -8 -21 -33 26 -34 61 0 15 -9 38 -20 52 -36 46 -59 23
-141 -142 -88 -175 -123 -225 -148 -211 -10 5 -31 36 -47 70 -34 72 -64 97
-94 78 -21 -13 -32 -44 -50 -137 -5 -28 -16 -64 -24 -79 l-15 -27 -7 33 c-7
36 -35 56 -64 47 -21 -7 -44 -70 -55 -147 -6 -47 -49 -109 -64 -92 -4 5 -14
43 -21 83 -13 68 -35 111 -58 111 -5 0 -17 -6 -28 -14 -17 -13 -19 -25 -16
-122 1 -58 0 -115 -4 -126 -5 -18 -8 -17 -25 11 -18 30 -51 41 -64 21 -15 -24
-44 -5 -127 80 -90 94 -114 105 -149 74 -17 -15 -20 -15 -45 5 -15 12 -36 21
-48 21 -13 0 -41 19 -66 46 -25 25 -110 98 -189 162 -138 111 -155 121 -420
254 -291 145 -330 158 -365 119 -26 -29 -6 -57 99 -136 67 -50 96 -78 100 -97
9 -38 93 -135 127 -147 25 -9 31 -7 50 19 12 17 27 30 34 30 13 0 42 -32 114
-126 25 -32 76 -94 115 -138 38 -44 64 -81 58 -83 -7 -3 -23 -13 -37 -24 -21
-17 -24 -23 -15 -43 12 -26 67 -56 104 -56 13 0 43 -9 68 -19 35 -15 54 -33
89 -88 57 -86 108 -183 108 -205 0 -10 36 -56 80 -102 l80 -85 0 -124 c0 -109
2 -126 19 -141 15 -14 24 -15 39 -7 27 14 32 32 32 107 0 35 2 64 5 64 3 0 14
-5 24 -12 14 -9 29 -9 54 -1 34 10 35 9 41 -18 3 -15 15 -33 27 -39 30 -17 63
10 100 81 19 36 64 89 127 150 104 101 255 239 312 285 19 16 46 39 60 51 14
13 29 23 34 23 14 0 266 253 283 284 8 16 31 44 50 62 l34 32 26 -24 c20 -18
29 -21 44 -13 24 12 33 30 63 120 38 118 65 169 88 169 4 0 8 -25 8 -55 0 -44
4 -56 20 -65 44 -24 64 0 106 130 10 30 19 57 21 59 1 2 14 -6 29 -18 15 -11
30 -21 34 -21 17 0 59 54 66 83 3 17 10 38 14 47 42 89 43 90 72 90 20 0 37 9
51 26 31 37 90 94 97 94 4 0 16 19 28 43 11 23 49 78 82 122 116 151 227 300
266 356 54 78 155 222 259 369 316 445 297 415 319 520 22 108 61 284 93 420
8 36 19 83 23 106 5 22 13 51 18 65 11 28 28 106 37 169 8 51 38 148 97 301
l40 107 -22 73 c-12 41 -28 97 -36 124 -11 38 -13 80 -8 175 5 109 4 127 -10
139 -9 7 -25 11 -35 8 -45 -11 -50 7 -53 188 -3 165 -4 172 -32 230 -33 65
-160 247 -197 282 -13 11 -62 41 -109 65 -75 40 -244 148 -308 199 -26 20
-112 47 -187 59 -27 4 -111 22 -185 40 -180 43 -171 42 -205 26z m400 -175
c52 -16 74 -32 170 -124 110 -105 131 -140 58 -95 -33 21 -86 47 -118 59 -52
20 -275 158 -275 171 0 15 105 8 165 -11z m-245 -26 c0 -8 -7 -15 -15 -15 -8
0 -15 7 -15 15 0 8 7 15 15 15 8 0 15 -7 15 -15z m-82 -102 c-10 -2 -26 -2
-35 0 -10 3 -2 5 17 5 19 0 27 -2 18 -5z m952 -338 c0 -8 -2 -15 -4 -15 -2 0
-6 7 -10 15 -3 8 -1 15 4 15 6 0 10 -7 10 -15z m17 -206 c14 -26 18 -99 6 -99
-11 0 -43 81 -43 108 0 29 20 24 37 -9z m-128 -336 c0 -34 -1 -36 -11 -16 -6
12 -8 29 -5 37 11 27 17 18 16 -21z m105 -165 c3 -13 6 -73 6 -135 0 -112 -12
-164 -47 -201 -7 -7 -13 -21 -13 -29 0 -9 -2 -14 -5 -11 -3 3 -1 54 5 114 5
60 13 148 16 197 4 61 10 87 19 87 7 0 15 -10 19 -22z m-137 -198 c-8 -77 -17
-110 -28 -110 -15 0 -10 77 6 90 8 7 15 28 15 46 0 19 3 34 6 34 4 0 4 -27 1
-60z m167 -337 c16 -100 -2 -254 -50 -413 -23 -76 -28 -130 -15 -143 13 -13
15 -54 2 -61 -4 -3 -11 -20 -15 -37 -10 -50 -21 -24 -21 50 0 52 -4 72 -18 85
-15 15 -17 28 -12 75 9 78 41 249 73 386 23 102 45 124 56 58z m-237 -1014
c-8 -109 -37 -171 -97 -208 -21 -13 -43 -33 -48 -45 -11 -21 -11 -21 -11 1 -1
13 28 78 63 146 36 68 68 140 71 160 4 20 12 37 18 37 7 0 8 -31 4 -91z m-357
-669 c0 -13 -28 -57 -52 -84 -30 -33 -23 9 10 55 27 38 42 49 42 29z m-414
-557 c-11 -11 -17 4 -9 23 7 18 8 18 11 1 2 -10 1 -21 -2 -24z m-780 -556 c-6
-25 -60 -54 -71 -38 -2 5 10 35 27 67 l32 59 9 -32 c5 -17 7 -43 3 -56z
m-1665 16 c35 -25 78 -59 96 -74 36 -31 30 -37 -42 -35 -37 1 -43 6 -92 71
-29 39 -53 73 -53 78 0 18 32 4 91 -40z m1339 -184 c0 -22 -5 -29 -20 -29 -22
0 -26 20 -9 51 14 26 29 15 29 -22z m-1071 -33 c27 -27 39 -46 32 -50 -6 -4
-14 0 -17 8 -3 9 -11 16 -18 16 -14 0 -66 47 -66 60 0 22 28 8 69 -34z m491
-314 c0 -14 -23 -32 -41 -32 -17 0 -32 23 -22 34 9 9 63 7 63 -2z m-111 -179
c0 -25 -1 -25 -8 -8 -5 11 -7 23 -4 28 8 14 13 7 12 -20z"/>
</g>
</svg>
